<svg xmlns="http://www.w3.org/2000/svg" width="64" height="64" viewBox="0 0 172 172"><defs><linearGradient x1="134.375" y1="117.355" x2="134.375" y2="142.026" gradientUnits="userSpaceOnUse" id="a"><stop offset="0" stop-color="#95facc"/><stop offset="1" stop-color="#6ec8ff"/></linearGradient><linearGradient x1="86" y1="21.051" x2="86" y2="150.403" gradientUnits="userSpaceOnUse" id="b"><stop offset="0" stop-color="#2af598"/><stop offset="1" stop-color="#009efd"/></linearGradient><linearGradient x1="86" y1="21.051" x2="86" y2="150.403" gradientUnits="userSpaceOnUse" id="c"><stop offset="0" stop-color="#2af598"/><stop offset="1" stop-color="#009efd"/></linearGradient></defs><g fill="none" stroke-miterlimit="10" font-family="none" font-weight="none" font-size="none" text-anchor="none" style="mix-blend-mode:normal"><path d="M0 172V0h172v172z"/><path d="M123.625 139.75h16.125a5.374 5.374 0 005.375-5.375V118.25z" fill="url(#a)"/><path d="M142.438 51.063h-18.813v-2.688A5.38 5.38 0 00118.25 43v-8.063c0-7.409-6.028-13.437-13.438-13.437H67.189c-7.41 0-13.438 6.028-13.438 13.438V43a5.38 5.38 0 00-5.375 5.375v2.688H29.562c-7.409 0-13.437 6.028-13.437 13.437v72.563c0 7.409 6.028 13.437 13.438 13.437h112.874c7.41 0 13.438-6.028 13.438-13.438V64.5c0-7.41-6.028-13.438-13.438-13.438zm-40.313 0v-2.688h16.125v2.688zM69.875 43v-5.375h32.25V43a5.38 5.38 0 00-5.375 5.375v2.688h-21.5v-2.688A5.38 5.38 0 0069.875 43zm-10.75-8.063c0-4.445 3.617-8.062 8.063-8.062h37.624c4.446 0 8.063 3.617 8.063 8.063V43H107.5v-5.375a5.38 5.38 0 00-5.375-5.375h-32.25a5.38 5.38 0 00-5.375 5.375V43h-5.375zM53.75 48.376h16.125v2.688H53.75zm-24.188 8.063h112.876c4.445 0 8.062 3.617 8.062 8.062v2.053l-12.873 25.744a8.011 8.011 0 01-7.205 4.453h-17.547v-8.062a5.38 5.38 0 00-5.375-5.375h-5.375a5.38 5.38 0 00-5.375 5.375v8.062h-21.5v-8.062a5.38 5.38 0 00-5.375-5.375H64.5a5.38 5.38 0 00-5.375 5.375v8.062H41.578a8.011 8.011 0 01-7.205-4.453L21.5 66.553V64.5c0-4.445 3.617-8.063 8.063-8.063zm77.938 32.25V107.5a2.688 2.688 0 01-5.375 0V88.687zm-37.625 0V107.5a2.688 2.688 0 01-5.375 0V88.687zm72.563 56.437H29.563c-4.446 0-8.063-3.617-8.063-8.063v-58.49l8.065 16.127a13.356 13.356 0 0012.013 7.426h17.547v5.375c0 4.445 3.617 8.063 8.063 8.063 4.445 0 8.062-3.618 8.062-8.063v-5.375h21.5v5.375c0 4.445 3.617 8.063 8.063 8.063 4.445 0 8.062-3.618 8.062-8.063v-5.375h17.547a13.36 13.36 0 0012.013-7.426l8.065-16.127v58.49c0 4.446-3.617 8.063-8.062 8.063z" fill="url(#b)"/><path d="M69.875 61.813h32.25v5.374h-32.25z" fill="url(#c)"/></g></svg>