<svg xmlns="http://www.w3.org/2000/svg" width="64" height="64" viewBox="0 0 172 172"><defs><linearGradient x1="86" y1="12.543" x2="86" y2="160.342" gradientUnits="userSpaceOnUse" id="a"><stop offset="0" stop-color="#2af598"/><stop offset="1" stop-color="#009efd"/></linearGradient><linearGradient x1="118.25" y1="12.543" x2="118.25" y2="160.342" gradientUnits="userSpaceOnUse" id="b"><stop offset="0" stop-color="#2af598"/><stop offset="1" stop-color="#009efd"/></linearGradient><linearGradient x1="40.313" y1="12.543" x2="40.313" y2="160.342" gradientUnits="userSpaceOnUse" id="c"><stop offset="0" stop-color="#2af598"/><stop offset="1" stop-color="#009efd"/></linearGradient><linearGradient x1="56.438" y1="12.543" x2="56.438" y2="160.342" gradientUnits="userSpaceOnUse" id="d"><stop offset="0" stop-color="#2af598"/><stop offset="1" stop-color="#009efd"/></linearGradient><linearGradient x1="130.344" y1="123.458" x2="130.344" y2="142.747" gradientUnits="userSpaceOnUse" id="e"><stop offset="0" stop-color="#95facc"/><stop offset="1" stop-color="#6ec8ff"/></linearGradient></defs><g fill="none" stroke-miterlimit="10" font-family="none" font-weight="none" font-size="none" text-anchor="none" style="mix-blend-mode:normal"><path d="M0 172V0h172v172z"/><path d="M142.438 43H129v-5.375a5.38 5.38 0 00-5.375-5.375h-10.75a5.38 5.38 0 00-5.375 5.375V43H86V29.562c0-7.409-6.028-13.437-13.438-13.437h-43c-7.409 0-13.437 6.028-13.437 13.438v37.624c0 7.41 6.028 13.438 13.438 13.438H43v61.813c0 7.409 6.028 13.437 13.438 13.437h86c7.409 0 13.437-6.028 13.437-13.438v-86c0-7.409-6.028-13.437-13.438-13.437zm-29.563-5.375h10.75V53.75h-10.75zm-5.375 10.75v5.375a5.38 5.38 0 005.375 5.375h10.75A5.38 5.38 0 00129 53.75v-5.375h13.438c4.445 0 8.062 3.617 8.062 8.063v13.437H85.729c.177-.868.271-1.768.271-2.688V48.376zm2.688 88.688h-21.5V118.25h21.5zM61.812 91.374h21.5v21.5h-21.5zm0 26.875h21.5v18.813h-21.5zm26.876-5.375v-21.5h21.5v21.5zm26.874-21.5h21.5v21.5h-21.5zm-32.25-16.208v.083h53.75V86h-75.25v-5.375h10.75c4.41 0 8.3-2.166 10.75-5.458zM21.5 67.187V29.563c0-4.446 3.617-8.063 8.063-8.063h43c4.445 0 8.062 3.617 8.062 8.063v37.624c0 4.446-3.617 8.063-8.063 8.063h-43c-4.445 0-8.062-3.617-8.062-8.063zM142.438 150.5h-86c-4.446 0-8.063-3.617-8.063-8.063V80.626h8.063v61.813h59.125V118.25h26.874v-43h8.063v67.188c0 4.445-3.617 8.062-8.063 8.062z" fill="url(#a)"/><path d="M115.563 40.313h5.374v10.75h-5.374z" fill="url(#b)"/><path d="M37.625 32.25H43V64.5h-5.375z" fill="url(#c)"/><path d="M48.375 64.5H64.5V32.25H48.375zm5.375-26.875h5.375v21.5H53.75z" fill="url(#d)"/><path d="M120.938 142.438v-16.125a2.688 2.688 0 012.687-2.688h16.125z" fill="url(#e)"/></g></svg>