<svg xmlns="http://www.w3.org/2000/svg" x="0px" y="0px"
width="100" height="100"
viewBox="0 0 172 172"
style=" fill:#000000;"><g fill="none" fill-rule="nonzero" stroke="none" stroke-width="1" stroke-linecap="butt" stroke-linejoin="miter" stroke-miterlimit="10" stroke-dasharray="" stroke-dashoffset="0" font-family="none" font-weight="none" font-size="none" text-anchor="none" style="mix-blend-mode: normal"><path d="M0,172v-172h172v172z" fill="none"></path><g fill="#ecf0f1"><path d="M85.86615,14.78125c-39.2375,0 -71.0849,31.98125 -71.0849,71.21875c0,19.35 7.65885,37.49063 21.63385,51.0625c0.80625,0.80625 1.74635,1.07605 2.82135,1.07605c1.075,0 2.15157,-0.40365 2.95782,-1.2099c1.6125,-1.6125 1.47865,-4.1672 -0.13385,-5.64532c-12.3625,-11.95938 -19.21667,-28.08333 -19.21667,-45.28333c0,-34.80312 28.35313,-63.15625 63.15625,-63.15625c34.80313,0 63.15625,28.35313 63.15625,63.15625c0,7.525 -1.34427,14.7802 -3.8974,21.7677c-0.67187,2.01563 0.40417,4.30105 2.4198,5.1073c2.15,0.80625 4.4328,-0.2698 5.10468,-2.4198c2.82188,-7.79375 4.30157,-16.12395 4.30157,-24.4552c0,-39.2375 -31.98125,-71.21875 -71.21875,-71.21875zM86,55.09375c-2.28437,0 -4.03125,1.74687 -4.03125,4.03125v25.26355l-20.2901,20.2901c-1.6125,1.6125 -1.6125,4.16457 0,5.6427c0.80625,0.80625 1.88072,1.2099 2.82135,1.2099c0.94062,0 2.0151,-0.40365 2.82135,-1.2099l21.5,-21.5c0.80625,-0.80625 1.2099,-1.74635 1.2099,-2.82135v-26.875c0,-2.28438 -1.74688,-4.03125 -4.03125,-4.03125zM147.94897,132.29376c-1.85736,0.04225 -3.54728,1.40989 -3.90002,3.29114c-0.40312,2.15 1.07552,4.3 3.22552,4.70313l9.2724,1.7453c-45.28437,29.15938 -105.08072,27.27812 -148.61823,-5.375c-1.74688,-1.34375 -4.30157,-0.93853 -5.64532,0.80835c-1.34375,1.74687 -0.93853,4.29895 0.80835,5.6427c24.45625,18.40938 53.74842,27.54688 83.04217,27.54688c26.06875,0 52.13907,-7.2573 74.84845,-21.90417l-1.74792,9.0047c-0.40312,2.15 1.07552,4.3 3.22552,4.70313c0.26875,0 0.53698,0.13385 0.80573,0.13385c1.88125,0 3.62865,-1.34427 3.8974,-3.22552l3.49323,-18.67865c0.13438,-1.075 0,-2.14895 -0.67187,-2.9552c-0.67187,-1.075 -1.61302,-1.7474 -2.55365,-1.88177l-18.67865,-3.49323c-0.26875,-0.05039 -0.53777,-0.07165 -0.80311,-0.06561z"></path></g></g></svg>
