<svg xmlns="http://www.w3.org/2000/svg" width="100" height="100" viewBox="0 0 172 172"><g fill="none" stroke-miterlimit="10" font-family="none" font-weight="none" font-size="none" text-anchor="none" style="mix-blend-mode:normal"><path d="M0 172V0h172v172z"/><path d="M85.866 14.781C46.63 14.781 14.781 46.762 14.781 86c0 19.35 7.66 37.49 21.634 51.063.806.806 1.746 1.076 2.821 1.076a4.173 4.173 0 002.958-1.21c1.613-1.613 1.479-4.168-.134-5.646C29.698 119.324 22.844 103.2 22.844 86c0-34.803 28.353-63.156 63.156-63.156S149.156 51.197 149.156 86c0 7.525-1.344 14.78-3.897 21.768-.672 2.015.404 4.3 2.42 5.107 2.15.806 4.432-.27 5.104-2.42A72.09 72.09 0 00157.085 86c0-39.237-31.981-71.219-71.219-71.219zM86 55.094c-2.284 0-4.031 1.747-4.031 4.031v25.264l-20.29 20.29c-1.613 1.612-1.613 4.164 0 5.642.806.807 1.88 1.21 2.821 1.21.94 0 2.015-.403 2.821-1.21l21.5-21.5c.807-.806 1.21-1.746 1.21-2.821V59.125c0-2.284-1.747-4.031-4.031-4.031zm61.949 77.2c-1.857.042-3.547 1.41-3.9 3.29-.403 2.15 1.075 4.3 3.225 4.704l9.273 1.745c-45.285 29.16-105.08 27.278-148.618-5.375-1.747-1.343-4.302-.938-5.646.809-1.343 1.747-.938 4.299.809 5.642 24.456 18.41 53.748 27.547 83.042 27.547 26.069 0 52.139-7.257 74.848-21.904l-1.748 9.005c-.403 2.15 1.076 4.3 3.226 4.703.269 0 .537.134.806.134 1.88 0 3.628-1.345 3.897-3.226l3.493-18.678c.135-1.075 0-2.15-.672-2.956-.671-1.075-1.613-1.747-2.553-1.881l-18.679-3.494a3.878 3.878 0 00-.803-.065z" fill="#ecf0f1"/></g></svg>