<svg xmlns="http://www.w3.org/2000/svg" width="64" height="64" viewBox="0 0 172 172"><defs><linearGradient x1="86" y1="12.094" x2="86" y2="161.492" gradientUnits="userSpaceOnUse" id="a"><stop offset="0" stop-color="#2af598"/><stop offset="1" stop-color="#009efd"/></linearGradient><linearGradient x1="86" y1="12.094" x2="86" y2="161.492" gradientUnits="userSpaceOnUse" id="b"><stop offset="0" stop-color="#2af598"/><stop offset="1" stop-color="#009efd"/></linearGradient><linearGradient x1="108.803" y1="113.324" x2="108.803" y2="125.673" gradientUnits="userSpaceOnUse" id="c"><stop offset="0" stop-color="#95facc"/><stop offset="1" stop-color="#6ec8ff"/></linearGradient><linearGradient x1="63.197" y1="68.754" x2="63.197" y2="79.504" gradientUnits="userSpaceOnUse" id="d"><stop offset="0" stop-color="#95facc"/><stop offset="1" stop-color="#6ec8ff"/></linearGradient><linearGradient x1="108.803" y1="68.754" x2="108.803" y2="79.504" gradientUnits="userSpaceOnUse" id="e"><stop offset="0" stop-color="#95facc"/><stop offset="1" stop-color="#6ec8ff"/></linearGradient><linearGradient x1="63.197" y1="113.324" x2="63.197" y2="125.673" gradientUnits="userSpaceOnUse" id="f"><stop offset="0" stop-color="#95facc"/><stop offset="1" stop-color="#6ec8ff"/></linearGradient></defs><g fill="none" stroke-miterlimit="10" font-family="none" font-weight="none" font-size="none" text-anchor="none" style="mix-blend-mode:normal"><path d="M0 172V0h172v172z"/><path d="M134.692 130.236c6.571-9.524 10.433-21.062 10.433-33.486 0-12.427-3.862-23.962-10.436-33.489l2.62-2.62a10.668 10.668 0 003.15-7.6c0-2.87-1.118-5.569-3.15-7.6-4.065-4.067-11.144-4.062-15.2 0l-2.62 2.62a58.728 58.728 0 00-23.516-9.576c2.129-2.381 3.465-5.485 3.465-8.922 0-7.41-6.029-13.438-13.438-13.438-7.41 0-13.437 6.028-13.437 13.438 0 3.437 1.335 6.54 3.464 8.92a58.805 58.805 0 00-23.516 9.575l-2.62-2.618c-4.056-4.06-11.137-4.066-15.2 0a10.677 10.677 0 00-3.15 7.6c0 2.873 1.118 5.572 3.15 7.6l2.617 2.621c-6.571 9.527-10.433 21.065-10.433 33.489 0 12.427 3.862 23.962 10.436 33.489l-2.62 2.62a10.668 10.668 0 00-3.15 7.6c0 2.87 1.117 5.569 3.15 7.6a10.677 10.677 0 007.6 3.15c2.872 0 5.57-1.118 7.6-3.15l2.62-2.62c9.527 6.574 21.065 10.436 33.489 10.436 12.424 0 23.962-3.862 33.489-10.433l2.62 2.618a10.668 10.668 0 007.6 3.15c2.87 0 5.569-1.119 7.6-3.15a10.677 10.677 0 003.15-7.6c0-2.873-1.118-5.572-3.15-7.6zm-.454-36.173c-1.357-24.527-21.024-44.194-45.55-45.55v-5.376c27.49 1.368 49.557 23.435 50.925 50.925zM86 139.75c-23.71 0-43-19.29-43-43s19.29-43 43-43 43 19.29 43 43-19.29 43-43 43zm-2.688-91.238c-24.526 1.357-44.193 21.024-45.55 45.55h-5.375c1.368-27.49 23.435-49.557 50.925-50.925zm-45.55 50.925c1.357 24.527 21.024 44.194 45.55 45.55v5.376c-27.49-1.368-49.557-23.435-50.925-50.925zm50.925 45.55c24.527-1.356 44.194-21.023 45.55-45.55h5.376c-1.368 27.49-23.435 49.558-50.925 50.926zM125.91 49.24c2.032-2.031 5.569-2.031 7.6 0a5.338 5.338 0 011.576 3.8 5.338 5.338 0 01-1.575 3.8l-2.097 2.097a59.722 59.722 0 00-7.6-7.6zM86 21.5c4.445 0 8.063 3.617 8.063 8.063 0 3.499-2.255 6.455-5.376 7.568v-7.569h-5.374v7.568c-3.12-1.112-5.376-4.068-5.376-7.568 0-4.445 3.618-8.062 8.063-8.062zM38.49 56.84a5.338 5.338 0 01-1.575-3.8c0-1.435.56-2.784 1.575-3.8 2.032-2.031 5.569-2.031 7.6 0l2.097 2.097a59.763 59.763 0 00-7.603 7.603zm7.6 87.42c-2.031 2.031-5.568 2.031-7.6 0a5.338 5.338 0 01-1.575-3.8c0-1.436.56-2.785 1.575-3.8l2.097-2.097c2.3 2.757 4.842 5.3 7.6 7.6zm87.42 0c-2.032 2.031-5.569 2.031-7.6 0l-2.097-2.097a59.763 59.763 0 007.603-7.603l2.096 2.097a5.338 5.338 0 011.575 3.8 5.347 5.347 0 01-1.577 3.803z" fill="url(#a)"/><path d="M90.56 77.478A5.347 5.347 0 0086 74.952a5.353 5.353 0 00-4.56 2.526L71.177 93.896a5.41 5.41 0 000 5.703l10.261 16.42A5.347 5.347 0 0086 118.546a5.353 5.353 0 004.56-2.527l10.262-16.42a5.406 5.406 0 000-5.7zm-4.555 2.851l8.582 13.734H77.413zm-.01 32.842l-8.582-13.733h17.174z" fill="url(#b)"/><path d="M108.803 114.178a5.375 5.375 0 100 10.75 5.375 5.375 0 000-10.75z" fill="url(#c)"/><path d="M63.197 68.572a5.375 5.375 0 100 10.75 5.375 5.375 0 000-10.75z" fill="url(#d)"/><path d="M108.803 68.572a5.375 5.375 0 100 10.75 5.375 5.375 0 000-10.75z" fill="url(#e)"/><path d="M63.197 114.178a5.375 5.375 0 100 10.75 5.375 5.375 0 000-10.75z" fill="url(#f)"/></g></svg>