<svg xmlns="http://www.w3.org/2000/svg" width="64" height="64" viewBox="0 0 172 172"><defs><linearGradient x1="86" y1="63.156" x2="86" y2="79.338" gradientUnits="userSpaceOnUse" id="a"><stop offset="0" stop-color="#95facc"/><stop offset="1" stop-color="#6ec8ff"/></linearGradient><linearGradient x1="86" y1="31.801" x2="86" y2="140.231" gradientUnits="userSpaceOnUse" id="b"><stop offset="0" stop-color="#2af598"/><stop offset="1" stop-color="#009efd"/></linearGradient><linearGradient x1="48.375" y1="31.801" x2="48.375" y2="140.231" gradientUnits="userSpaceOnUse" id="c"><stop offset="0" stop-color="#2af598"/><stop offset="1" stop-color="#009efd"/></linearGradient><linearGradient x1="45.688" y1="31.801" x2="45.688" y2="140.231" gradientUnits="userSpaceOnUse" id="d"><stop offset="0" stop-color="#2af598"/><stop offset="1" stop-color="#009efd"/></linearGradient><linearGradient x1="53.75" y1="31.801" x2="53.75" y2="140.231" gradientUnits="userSpaceOnUse" id="e"><stop offset="0" stop-color="#2af598"/><stop offset="1" stop-color="#009efd"/></linearGradient><linearGradient x1="86" y1="31.801" x2="86" y2="140.231" gradientUnits="userSpaceOnUse" id="f"><stop offset="0" stop-color="#2af598"/><stop offset="1" stop-color="#009efd"/></linearGradient><linearGradient x1="116.906" y1="31.801" x2="116.906" y2="140.231" gradientUnits="userSpaceOnUse" id="g"><stop offset="0" stop-color="#2af598"/><stop offset="1" stop-color="#009efd"/></linearGradient><linearGradient x1="110.188" y1="102.125" x2="110.188" y2="118.25" gradientUnits="userSpaceOnUse" id="h"><stop offset="0" stop-color="#95facc"/><stop offset="1" stop-color="#6ec8ff"/></linearGradient></defs><g fill="none" stroke-miterlimit="10" font-family="none" font-weight="none" font-size="none" text-anchor="none" style="mix-blend-mode:normal"><path d="M0 172V0h172v172z"/><path d="M21.5 64.5h129v10.75h-129z" fill="url(#a)"/><path d="M26.875 32.25h118.25v5.375H26.875z" fill="url(#b)"/><path d="M26.875 107.5h43v5.375h-43z" fill="url(#c)"/><path d="M26.875 118.25H64.5v5.375H26.875z" fill="url(#d)"/><path d="M30.906 102.125h45.688a4.036 4.036 0 004.031-4.031V90.03A4.036 4.036 0 0076.594 86H30.906a4.036 4.036 0 00-4.031 4.031v8.063a4.036 4.036 0 004.031 4.031zm1.344-10.75h43v5.375h-43z" fill="url(#e)"/><path d="M147.813 43H24.188c-4.446 0-8.063 3.617-8.063 8.063v80.624c0 4.446 3.617 8.063 8.063 8.063h123.624c4.446 0 8.063-3.617 8.063-8.063V51.063c0-4.445-3.617-8.062-8.063-8.062zm2.687 88.688a2.688 2.688 0 01-2.688 2.687v.003H24.188v-.003a2.688 2.688 0 01-2.687-2.688V80.626h129zm0-56.438h-129V64.5h129zm0-16.125h-129v-8.063a2.688 2.688 0 012.688-2.687h123.624a2.688 2.688 0 012.688 2.688z" fill="url(#f)"/><path d="M123.625 96.75c-2.46 0-4.735.712-6.719 1.87-1.983-1.158-4.26-1.87-6.719-1.87-7.409 0-13.437 6.028-13.437 13.438 0 7.409 6.028 13.437 13.438 13.437 2.459 0 4.735-.712 6.718-1.87 1.984 1.158 4.26 1.87 6.719 1.87 7.41 0 13.438-6.028 13.438-13.438 0-7.409-6.029-13.437-13.438-13.437zm0 21.5c-.847 0-1.65-.167-2.416-.411-1.774-.562-3.295-1.69-4.303-3.212-1.008 1.521-2.529 2.647-4.302 3.212-.766.244-1.57.411-2.416.411-4.446 0-8.063-3.617-8.063-8.063 0-4.445 3.617-8.062 8.063-8.062.846 0 1.65.167 2.416.411 1.773.562 3.294 1.69 4.302 3.212 1.008-1.521 2.53-2.647 4.303-3.212.766-.244 1.57-.411 2.416-.411 4.445 0 8.063 3.617 8.063 8.063 0 4.445-3.618 8.062-8.063 8.062z" fill="url(#g)"/><path d="M110.188 102.125a8.062 8.062 0 100 16.125 8.062 8.062 0 000-16.125z" fill="url(#h)"/></g></svg>