<svg xmlns="http://www.w3.org/2000/svg" width="64" height="64" viewBox="0 0 172 172"><defs><linearGradient x1="86" y1="15.453" x2="86" y2="155.891" gradientUnits="userSpaceOnUse" id="a"><stop offset="0" stop-color="#2af598"/><stop offset="1" stop-color="#009efd"/></linearGradient><linearGradient x1="86" y1="15.453" x2="86" y2="155.891" gradientUnits="userSpaceOnUse" id="b"><stop offset="0" stop-color="#2af598"/><stop offset="1" stop-color="#009efd"/></linearGradient><linearGradient x1="51.063" y1="36.281" x2="51.063" y2="65.852" gradientUnits="userSpaceOnUse" id="c"><stop offset="0" stop-color="#95facc"/><stop offset="1" stop-color="#6ec8ff"/></linearGradient><linearGradient x1="86" y1="15.453" x2="86" y2="155.888" gradientUnits="userSpaceOnUse" id="d"><stop offset="0" stop-color="#2af598"/><stop offset="1" stop-color="#009efd"/></linearGradient><linearGradient x1="86" y1="15.453" x2="86" y2="155.891" gradientUnits="userSpaceOnUse" id="e"><stop offset="0" stop-color="#2af598"/><stop offset="1" stop-color="#009efd"/></linearGradient></defs><g fill="none" stroke-miterlimit="10" font-family="none" font-weight="none" font-size="none" text-anchor="none" style="mix-blend-mode:normal"><path d="M0 172V0h172v172z"/><path d="M86 155.867a13.245 13.245 0 01-9.398-3.883L20.016 95.397c-5.181-5.184-5.181-13.612 0-18.796l11.428-11.427a24.112 24.112 0 01-4.569-14.112c0-13.339 10.85-24.188 24.188-24.188 5.084 0 10.008 1.61 14.112 4.569l11.427-11.427c5.181-5.182 13.615-5.182 18.796 0l56.586 56.585c5.181 5.184 5.181 13.612 0 18.796l-56.586 56.586A13.245 13.245 0 0186 155.867zM51.062 32.25c-10.37 0-18.812 8.441-18.812 18.813 0 4.611 1.707 9.054 4.8 12.515l1.696 1.895-14.93 14.929c-3.082 3.085-3.082 8.11 0 11.196l56.586 56.585c3.085 3.083 8.11 3.083 11.196 0l56.585-56.585c3.083-3.085 3.083-8.11 0-11.196L91.598 23.819c-3.09-3.085-8.116-3.085-11.196 0l-14.93 14.93-1.894-1.696a18.757 18.757 0 00-12.516-4.803z" fill="url(#a)"/><path d="M86 145.582a8.024 8.024 0 01-5.708-2.365L28.783 91.708A8.024 8.024 0 0126.418 86c0-2.155.841-4.184 2.365-5.708L41.1 67.975l3.8 3.8-12.317 12.317a2.69 2.69 0 00-.79 1.908c0 .72.28 1.398.79 1.908l51.509 51.509c1.024 1.018 2.792 1.018 3.816 0l51.509-51.509a2.69 2.69 0 00.79-1.908c0-.72-.28-1.397-.79-1.908L87.908 32.583c-1.024-1.018-2.792-1.018-3.816 0L71.775 44.9l-3.8-3.8 12.317-12.317c3.05-3.05 8.366-3.05 11.416 0l51.509 51.509A8.024 8.024 0 01145.582 86a8.024 8.024 0 01-2.365 5.708l-51.509 51.509A8.013 8.013 0 0186 145.582z" fill="url(#b)"/><path d="M51.063 37.625c-7.422 0-13.438 6.016-13.438 13.438 0 7.42 6.016 13.437 13.438 13.437 7.42 0 13.437-6.016 13.437-13.438 0-7.42-6.016-13.437-13.438-13.437z" fill="url(#c)"/><path d="M83.313 53.75h5.374v43h-5.374z" fill="url(#d)"/><path d="M86 118.25a5.38 5.38 0 01-5.375-5.375A5.38 5.38 0 0186 107.5a5.38 5.38 0 015.375 5.375A5.38 5.38 0 0186 118.25zm0-5.38v.005z" fill="url(#e)"/></g></svg>