<svg xmlns="http://www.w3.org/2000/svg" width="64" height="64" viewBox="0 0 172 172"><defs><linearGradient x1="86" y1="10.75" x2="86" y2="159.417" gradientUnits="userSpaceOnUse" id="a"><stop offset="0" stop-color="#2af598"/><stop offset="1" stop-color="#009efd"/></linearGradient><linearGradient x1="93.275" y1="43.449" x2="93.275" y2="66.204" gradientUnits="userSpaceOnUse" id="b"><stop offset="0" stop-color="#95facc"/><stop offset="1" stop-color="#6ec8ff"/></linearGradient></defs><g fill="none" stroke-miterlimit="10" font-family="none" font-weight="none" font-size="none" text-anchor="none" style="mix-blend-mode:normal"><path d="M0 172V0h172v172z"/><path d="M141.094 113.789l-11.825-17.926a8.138 8.138 0 010-8.979l11.822-17.923a8.093 8.093 0 00.376-8.301 7.997 7.997 0 00-7.04-4.222h-21.552V43c0-4.445-3.615-8.062-8.06-8.062H47.351c2.258-1.973 3.714-4.835 3.714-8.063 0-5.929-4.821-10.75-10.75-10.75-5.928 0-10.75 4.821-10.75 10.75 0 3.806 1.994 7.133 4.983 9.043-1.384.976-2.298 2.578-2.298 4.395v115.562h5.375V40.312H43v115.563h5.375v-51.063h6.721l12.097 16.126a13.497 13.497 0 0010.62 5.366c.025 0 .05.008.073.008h56.54a7.99 7.99 0 007.041-4.222 8.099 8.099 0 00-.373-8.301zM40.315 21.5a5.38 5.38 0 015.375 5.375 5.38 5.38 0 01-5.375 5.375 5.38 5.38 0 01-5.375-5.375 5.38 5.38 0 015.375-5.375zm8.06 77.938V40.312h56.44A2.686 2.686 0 01107.5 43v53.75a2.686 2.686 0 01-2.685 2.688h-53.75zm88.357 20.105c-.226.422-.9 1.394-2.306 1.394H77.94c-.03 0-.062-.008-.091-.008-1.435-.021-2.599-1.209-2.599-2.679v-13.438h29.565c4.445 0 8.06-3.617 8.06-8.062V61.812h21.551c1.406 0 2.08.973 2.306 1.395a2.684 2.684 0 01-.126 2.795L124.78 83.925a13.511 13.511 0 000 14.9l11.827 17.925c.562.85.608 1.895.124 2.793z" fill="url(#a)"/><path d="M102.125 60.7V48.375a2.684 2.684 0 00-2.685-2.687H87.115c-2.394 0-3.593 2.894-1.9 4.587L97.537 62.6c1.696 1.693 4.588.494 4.588-1.9z" fill="url(#b)"/></g></svg>