<svg xmlns="http://www.w3.org/2000/svg" x="0px" y="0px"
width="100" height="100"
viewBox="0 0 172 172"
style=" fill:#000000;"><defs><linearGradient x1="72.5625" y1="27.21094" x2="72.5625" y2="144.96106" gradientUnits="userSpaceOnUse" id="color-1_43632_gr1"><stop offset="0" stop-color="#ecf0f1"></stop><stop offset="1" stop-color="#ffffff"></stop></linearGradient><linearGradient x1="126.3125" y1="46.2895" x2="126.3125" y2="67.03969" gradientUnits="userSpaceOnUse" id="color-2_43632_gr2"><stop offset="0" stop-color="#ffffff"></stop><stop offset="1" stop-color="#ffffff"></stop></linearGradient><linearGradient x1="126.3125" y1="32.25" x2="126.3125" y2="150.00013" gradientUnits="userSpaceOnUse" id="color-3_43632_gr3"><stop offset="0" stop-color="#ecf0f1"></stop><stop offset="1" stop-color="#ffffff"></stop></linearGradient><linearGradient x1="126.3125" y1="27.21094" x2="126.3125" y2="144.96106" gradientUnits="userSpaceOnUse" id="color-4_43632_gr4"><stop offset="0" stop-color="#ecf0f1"></stop><stop offset="1" stop-color="#ffffff"></stop></linearGradient><linearGradient x1="126.3125" y1="27.21094" x2="126.3125" y2="144.96106" gradientUnits="userSpaceOnUse" id="color-5_43632_gr5"><stop offset="0" stop-color="#ecf0f1"></stop><stop offset="1" stop-color="#ffffff"></stop></linearGradient><linearGradient x1="126.3125" y1="27.21094" x2="126.3125" y2="144.96106" gradientUnits="userSpaceOnUse" id="color-6_43632_gr6"><stop offset="0" stop-color="#ecf0f1"></stop><stop offset="1" stop-color="#ffffff"></stop></linearGradient><linearGradient x1="153.1875" y1="27.21094" x2="153.1875" y2="144.96106" gradientUnits="userSpaceOnUse" id="color-7_43632_gr7"><stop offset="0" stop-color="#ecf0f1"></stop><stop offset="1" stop-color="#ffffff"></stop></linearGradient><linearGradient x1="99.4375" y1="27.21094" x2="99.4375" y2="144.96106" gradientUnits="userSpaceOnUse" id="color-8_43632_gr8"><stop offset="0" stop-color="#ecf0f1"></stop><stop offset="1" stop-color="#ffffff"></stop></linearGradient><linearGradient x1="126.29906" y1="27.21094" x2="126.29906" y2="144.96106" gradientUnits="userSpaceOnUse" id="color-9_43632_gr9"><stop offset="0" stop-color="#ecf0f1"></stop><stop offset="1" stop-color="#ffffff"></stop></linearGradient><linearGradient x1="45.6875" y1="27.21094" x2="45.6875" y2="144.96106" gradientUnits="userSpaceOnUse" id="color-10_43632_gr10"><stop offset="0" stop-color="#ecf0f1"></stop><stop offset="1" stop-color="#ffffff"></stop></linearGradient><linearGradient x1="45.6875" y1="27.21094" x2="45.6875" y2="144.96106" gradientUnits="userSpaceOnUse" id="color-11_43632_gr11"><stop offset="0" stop-color="#ecf0f1"></stop><stop offset="1" stop-color="#ffffff"></stop></linearGradient><linearGradient x1="126.3125" y1="50.55456" x2="126.3125" y2="141.38938" gradientUnits="userSpaceOnUse" id="color-12_43632_gr12"><stop offset="0" stop-color="#ecf0f1"></stop><stop offset="1" stop-color="#ffffff"></stop></linearGradient><linearGradient x1="72.5625" y1="27.21094" x2="72.5625" y2="144.96106" gradientUnits="userSpaceOnUse" id="color-13_43632_gr13"><stop offset="0" stop-color="#ecf0f1"></stop><stop offset="1" stop-color="#ffffff"></stop></linearGradient><linearGradient x1="99.4375" y1="27.21094" x2="99.4375" y2="144.96106" gradientUnits="userSpaceOnUse" id="color-14_43632_gr14"><stop offset="0" stop-color="#ecf0f1"></stop><stop offset="1" stop-color="#ffffff"></stop></linearGradient><linearGradient x1="86" y1="27.21094" x2="86" y2="144.96106" gradientUnits="userSpaceOnUse" id="color-15_43632_gr15"><stop offset="0" stop-color="#ecf0f1"></stop><stop offset="1" stop-color="#ffffff"></stop></linearGradient></defs><g fill="none" fill-rule="nonzero" stroke="none" stroke-width="1" stroke-linecap="butt" stroke-linejoin="miter" stroke-miterlimit="10" stroke-dasharray="" stroke-dashoffset="0" font-family="none" font-weight="none" font-size="none" text-anchor="none" style="mix-blend-mode: normal"><path d="M0,172v-172h172v172z" fill="none"></path><g><path d="M69.875,29.5625h5.375v24.1875h-5.375z" fill="url(#color-1_43632_gr1)"></path><path d="M123.88031,46.96944l-5.2245,8.10819c-0.54019,0.8385 -0.54019,1.88394 0,2.72244l5.2245,8.10819c1.10187,1.70925 3.7625,1.70925 4.86437,0l5.2245,-8.10819c0.54019,-0.8385 0.54019,-1.88394 0,-2.72244l-5.2245,-8.10819c-1.10188,-1.70925 -3.7625,-1.70925 -4.86437,0z" fill="url(#color-2_43632_gr2)"></path><path d="M123.625,21.5h5.375v8.0625h-5.375z" fill="url(#color-3_43632_gr3)"></path><path d="M126.3125,88.6875c-17.78319,0 -32.25,-14.46681 -32.25,-32.25c0,-17.78319 14.46681,-32.25 32.25,-32.25c17.78319,0 32.25,14.46681 32.25,32.25c0,17.78319 -14.46681,32.25 -32.25,32.25zM126.3125,29.5625c-14.81888,0 -26.875,12.05613 -26.875,26.875c0,14.81887 12.05612,26.875 26.875,26.875c14.81888,0 26.875,-12.05613 26.875,-26.875c0,-14.81887 -12.05612,-26.875 -26.875,-26.875z" fill="url(#color-4_43632_gr4)"></path><path d="M126.3125,77.9375c-2.96853,0 -5.375,2.40647 -5.375,5.375c0,2.96853 2.40647,5.375 5.375,5.375c2.96853,0 5.375,-2.40647 5.375,-5.375c0,-2.96853 -2.40647,-5.375 -5.375,-5.375z" fill="url(#color-5_43632_gr5)"></path><path d="M126.3125,24.1875c-2.96853,0 -5.375,2.40647 -5.375,5.375c0,2.96853 2.40647,5.375 5.375,5.375c2.96853,0 5.375,-2.40647 5.375,-5.375c0,-2.96853 -2.40647,-5.375 -5.375,-5.375z" fill="url(#color-6_43632_gr6)"></path><path d="M153.1875,51.0625c-2.96853,0 -5.375,2.40647 -5.375,5.375c0,2.96853 2.40647,5.375 5.375,5.375c2.96853,0 5.375,-2.40647 5.375,-5.375c0,-2.96853 -2.40647,-5.375 -5.375,-5.375z" fill="url(#color-7_43632_gr7)"></path><path d="M99.4375,51.0625c-2.96853,0 -5.375,2.40647 -5.375,5.375c0,2.96853 2.40647,5.375 5.375,5.375c2.96853,0 5.375,-2.40647 5.375,-5.375c0,-2.96853 -2.40647,-5.375 -5.375,-5.375z" fill="url(#color-8_43632_gr8)"></path><path d="M126.35281,24.1875c-4.46931,0 -8.10281,-3.61737 -8.10281,-8.0625c0,-4.44512 3.6335,-8.0625 8.10281,-8.0625c4.46931,0 7.99531,3.61738 7.99531,8.0625c0,4.44513 -3.526,8.0625 -7.99531,8.0625zM126.3125,13.4375c-1.48081,0 -2.6875,1.20669 -2.6875,2.6875c0,1.48081 1.20669,2.6875 2.6875,2.6875c1.48081,0 2.6875,-1.20669 2.6875,-2.6875c0,-1.48081 -1.20669,-2.6875 -2.6875,-2.6875z" fill="url(#color-9_43632_gr9)"></path><path d="M43,120.9375h5.375v21.83594h-5.375z" fill="url(#color-10_43632_gr10)"></path><path d="M43,43h5.375v67.1875h-5.375z" fill="url(#color-11_43632_gr11)"></path><path d="M123.625,102.125h5.375v27.21094h-5.375z" fill="url(#color-12_43632_gr12)"></path><path d="M69.875,91.375h5.375v37.625h-5.375z" fill="url(#color-13_43632_gr13)"></path><path d="M96.75,118.25h5.375v24.52344h-5.375z" fill="url(#color-14_43632_gr14)"></path><path d="M99.4805,145.12769c-2.70094,0 -5.42337,-0.80088 -7.74269,-2.41606l-17.58431,-10.46781c-1.08038,-0.74444 -2.32738,-0.74444 -3.25456,-0.10213l-17.65687,10.664c-4.45588,3.11212 -10.64519,3.11481 -15.25425,-0.09406l-18.2105,-10.99187c-2.31125,-1.60444 -3.65231,-4.15488 -3.65231,-6.751v-92.71875c0,-1.97531 1.03469,-3.8485 2.77887,-4.76225c1.79256,-0.93525 3.94794,-0.7955 5.61956,0.37356l19.53006,11.83037c1.06694,0.73638 2.31394,0.74175 3.24112,0.09406l17.85038,-10.57531c4.43975,-3.10138 10.62906,-3.10406 15.23812,0.10481l17.35319,10.33344c0.7955,0.54556 1.52112,0.56706 2.02906,0.50525l0.65037,5.33469c-2.021,0.2365 -4.00437,-0.22575 -5.59269,-1.33031l-17.35319,-10.36031c-2.92669,-2.02638 -6.6435,-2.03175 -9.417,-0.10213l-17.85037,10.60219c-2.59344,1.81675 -6.30488,1.81944 -9.073,-0.10481l-19.6295,-11.94325v92.71875c0,0.85462 0.473,1.73613 1.20131,2.24406l18.20781,10.99188c2.91325,2.021 6.63813,2.02637 9.40625,0.09406l17.65688,-10.664c2.61494,-1.82481 6.32637,-1.8275 9.08644,0.09406l17.587,10.4705c2.92669,2.02906 6.64888,2.03444 9.41969,0.10213l17.71869,-10.66669c2.61225,-1.82212 6.32637,-1.82481 9.08644,0.09675l19.6295,12.0185v-65.84375l5.375,-5.375v71.21875c0,1.97531 -1.08306,3.76788 -2.82994,4.67894c-1.79794,0.93794 -3.95063,0.79281 -5.62225,-0.37087l-6.05494,-3.73562l-13.42137,-8.08669c-1.06694,-0.73369 -2.31125,-0.74175 -3.24113,-0.09675l-17.71869,10.66669c-2.20912,1.54531 -4.84556,2.322 -7.50619,2.322z" fill="url(#color-15_43632_gr15)"></path></g></g></svg>
