<svg xmlns="http://www.w3.org/2000/svg" width="64" height="64" viewBox="0 0 172 172"><defs><linearGradient x1="72.563" y1="27.211" x2="72.563" y2="144.961" gradientUnits="userSpaceOnUse" id="a"><stop offset="0" stop-color="#2af598"/><stop offset="1" stop-color="#009efd"/></linearGradient><linearGradient x1="126.313" y1="46.289" x2="126.313" y2="67.04" gradientUnits="userSpaceOnUse" id="b"><stop offset="0" stop-color="#95facc"/><stop offset="1" stop-color="#6ec8ff"/></linearGradient><linearGradient x1="126.313" y1="32.25" x2="126.313" y2="150" gradientUnits="userSpaceOnUse" id="c"><stop offset="0" stop-color="#2af598"/><stop offset="1" stop-color="#009efd"/></linearGradient><linearGradient x1="126.313" y1="27.211" x2="126.313" y2="144.961" gradientUnits="userSpaceOnUse" id="d"><stop offset="0" stop-color="#2af598"/><stop offset="1" stop-color="#009efd"/></linearGradient><linearGradient x1="126.313" y1="27.211" x2="126.313" y2="144.961" gradientUnits="userSpaceOnUse" id="e"><stop offset="0" stop-color="#2af598"/><stop offset="1" stop-color="#009efd"/></linearGradient><linearGradient x1="126.313" y1="27.211" x2="126.313" y2="144.961" gradientUnits="userSpaceOnUse" id="f"><stop offset="0" stop-color="#2af598"/><stop offset="1" stop-color="#009efd"/></linearGradient><linearGradient x1="153.188" y1="27.211" x2="153.188" y2="144.961" gradientUnits="userSpaceOnUse" id="g"><stop offset="0" stop-color="#2af598"/><stop offset="1" stop-color="#009efd"/></linearGradient><linearGradient x1="99.438" y1="27.211" x2="99.438" y2="144.961" gradientUnits="userSpaceOnUse" id="h"><stop offset="0" stop-color="#2af598"/><stop offset="1" stop-color="#009efd"/></linearGradient><linearGradient x1="126.299" y1="27.211" x2="126.299" y2="144.961" gradientUnits="userSpaceOnUse" id="i"><stop offset="0" stop-color="#2af598"/><stop offset="1" stop-color="#009efd"/></linearGradient><linearGradient x1="45.688" y1="27.211" x2="45.688" y2="144.961" gradientUnits="userSpaceOnUse" id="j"><stop offset="0" stop-color="#2af598"/><stop offset="1" stop-color="#009efd"/></linearGradient><linearGradient x1="45.688" y1="27.211" x2="45.688" y2="144.961" gradientUnits="userSpaceOnUse" id="k"><stop offset="0" stop-color="#2af598"/><stop offset="1" stop-color="#009efd"/></linearGradient><linearGradient x1="126.313" y1="50.555" x2="126.313" y2="141.389" gradientUnits="userSpaceOnUse" id="l"><stop offset="0" stop-color="#2af598"/><stop offset="1" stop-color="#009efd"/></linearGradient><linearGradient x1="72.563" y1="27.211" x2="72.563" y2="144.961" gradientUnits="userSpaceOnUse" id="m"><stop offset="0" stop-color="#2af598"/><stop offset="1" stop-color="#009efd"/></linearGradient><linearGradient x1="99.438" y1="27.211" x2="99.438" y2="144.961" gradientUnits="userSpaceOnUse" id="n"><stop offset="0" stop-color="#2af598"/><stop offset="1" stop-color="#009efd"/></linearGradient><linearGradient x1="86" y1="27.211" x2="86" y2="144.961" gradientUnits="userSpaceOnUse" id="o"><stop offset="0" stop-color="#2af598"/><stop offset="1" stop-color="#009efd"/></linearGradient></defs><g fill="none" stroke-miterlimit="10" font-family="none" font-weight="none" font-size="none" text-anchor="none" style="mix-blend-mode:normal"><path d="M0 172V0h172v172z"/><path d="M69.875 29.563h5.375V53.75h-5.375z" fill="url(#a)"/><path d="M123.88 46.97l-5.224 8.108a2.49 2.49 0 000 2.722l5.224 8.108c1.102 1.71 3.763 1.71 4.865 0l5.224-8.108a2.49 2.49 0 000-2.722l-5.224-8.109c-1.102-1.709-3.763-1.709-4.865 0z" fill="url(#b)"/><path d="M123.625 21.5H129v8.063h-5.375z" fill="url(#c)"/><path d="M126.313 88.688c-17.784 0-32.25-14.467-32.25-32.25 0-17.784 14.466-32.25 32.25-32.25 17.783 0 32.25 14.466 32.25 32.25 0 17.783-14.467 32.25-32.25 32.25zm0-59.126c-14.82 0-26.876 12.057-26.876 26.875 0 14.82 12.057 26.876 26.876 26.876 14.818 0 26.874-12.057 26.874-26.876 0-14.818-12.056-26.874-26.875-26.874z" fill="url(#d)"/><path d="M126.313 77.938a5.375 5.375 0 100 10.75 5.375 5.375 0 000-10.75z" fill="url(#e)"/><path d="M126.313 24.188a5.375 5.375 0 100 10.75 5.375 5.375 0 000-10.75z" fill="url(#f)"/><path d="M153.188 51.063a5.375 5.375 0 100 10.75 5.375 5.375 0 000-10.75z" fill="url(#g)"/><path d="M99.438 51.063a5.375 5.375 0 100 10.75 5.375 5.375 0 000-10.75z" fill="url(#h)"/><path d="M126.353 24.188c-4.47 0-8.103-3.618-8.103-8.063s3.634-8.063 8.103-8.063c4.47 0 7.995 3.618 7.995 8.063s-3.526 8.063-7.995 8.063zm-.04-10.75a2.692 2.692 0 00-2.688 2.687 2.692 2.692 0 002.688 2.688A2.692 2.692 0 00129 16.125a2.692 2.692 0 00-2.688-2.688z" fill="url(#i)"/><path d="M43 120.938h5.375v21.835H43z" fill="url(#j)"/><path d="M43 43h5.375v67.188H43z" fill="url(#k)"/><path d="M123.625 102.125H129v27.21h-5.375z" fill="url(#l)"/><path d="M69.875 91.375h5.375V129h-5.375z" fill="url(#m)"/><path d="M96.75 118.25h5.375v24.523H96.75z" fill="url(#n)"/><path d="M99.48 145.128c-2.7 0-5.423-.801-7.742-2.416l-17.584-10.468c-1.08-.745-2.328-.745-3.255-.102l-17.657 10.664c-4.456 3.112-10.645 3.115-15.254-.094l-18.21-10.992c-2.312-1.605-3.653-4.155-3.653-6.751V32.25c0-1.975 1.035-3.848 2.779-4.762a5.412 5.412 0 015.62.373l19.53 11.83c1.066.737 2.313.742 3.24.095L65.146 29.21c4.44-3.1 10.63-3.104 15.238.105L97.736 39.65a2.84 2.84 0 002.03.505l.65 5.335c-2.021.236-4.005-.226-5.593-1.33L77.47 33.797c-2.927-2.026-6.644-2.032-9.417-.102l-17.85 10.602c-2.594 1.817-6.305 1.82-9.074-.105L21.5 32.25v92.719c0 .854.473 1.736 1.201 2.244l18.208 10.992c2.913 2.02 6.638 2.026 9.406.094l17.657-10.664c2.615-1.825 6.327-1.828 9.087.094l17.587 10.47c2.926 2.03 6.649 2.035 9.42.102l17.718-10.666c2.612-1.822 6.326-1.825 9.086.097l19.63 12.018V73.906l5.375-5.375v71.219a5.256 5.256 0 01-2.83 4.679 5.421 5.421 0 01-5.622-.37l-6.055-3.737-13.421-8.086c-1.067-.734-2.312-.742-3.242-.097l-17.718 10.667c-2.21 1.545-4.846 2.322-7.507 2.322z" fill="url(#o)"/></g></svg>