<svg xmlns="http://www.w3.org/2000/svg" width="64" height="64" viewBox="0 0 172 172"><defs><linearGradient x1="104.813" y1="100.332" x2="104.813" y2="119.594" gradientUnits="userSpaceOnUse" id="a"><stop offset="0" stop-color="#95facc"/><stop offset="1" stop-color="#6ec8ff"/></linearGradient><linearGradient x1="67.188" y1="100.332" x2="67.188" y2="119.594" gradientUnits="userSpaceOnUse" id="b"><stop offset="0" stop-color="#95facc"/><stop offset="1" stop-color="#6ec8ff"/></linearGradient><linearGradient x1="86" y1="123.289" x2="86" y2="138.911" gradientUnits="userSpaceOnUse" id="c"><stop offset="0" stop-color="#95facc"/><stop offset="1" stop-color="#6ec8ff"/></linearGradient><linearGradient x1="86" y1="13.886" x2="86" y2="160.885" gradientUnits="userSpaceOnUse" id="d"><stop offset="0" stop-color="#2af598"/><stop offset="1" stop-color="#009efd"/></linearGradient><linearGradient x1="86" y1="13.886" x2="86" y2="160.885" gradientUnits="userSpaceOnUse" id="e"><stop offset="0" stop-color="#2af598"/><stop offset="1" stop-color="#009efd"/></linearGradient></defs><g fill="none" stroke-miterlimit="10" font-family="none" font-weight="none" font-size="none" text-anchor="none" style="mix-blend-mode:normal"><path d="M0 172V0h172v172z"/><path d="M104.813 102.125a8.062 8.062 0 100 16.125 8.062 8.062 0 000-16.125z" fill="url(#a)"/><path d="M67.188 102.125a8.062 8.062 0 100 16.125 8.062 8.062 0 000-16.125z" fill="url(#b)"/><path d="M75.25 126.313c0 5.936 4.813 10.75 10.75 10.75s10.75-4.814 10.75-10.75v-2.688h-21.5z" fill="url(#c)"/><path d="M134.375 86.215v-5.59c0-9.57-2.8-18.775-8.063-26.706v-.169c0-4.445-3.617-8.063-8.062-8.063h-1.862a33.209 33.209 0 00-1.293-3.141l1.311-1.309a8.016 8.016 0 002.363-5.703c0-2.153-.842-4.179-2.363-5.7l-3.8-3.8c-3.047-3.045-8.363-3.045-11.4 0l-1.312 1.311a32.86 32.86 0 00-3.144-1.295v-1.863c0-4.445-3.617-8.062-8.063-8.062h-5.374c-4.446 0-8.063 3.617-8.063 8.062v1.863a33.208 33.208 0 00-3.142 1.293L70.8 26.03c-3.042-3.045-8.355-3.045-11.403 0l-3.8 3.8a8.014 8.014 0 00-2.362 5.7c0 2.156.841 4.182 2.362 5.7l1.312 1.312a32.862 32.862 0 00-1.296 3.145H53.75c-4.445 0-8.062 3.617-8.062 8.062v.17a48.095 48.095 0 00-8.063 26.708v5.59c-9.1 1.311-16.125 9.14-16.125 18.597 0 10.371 8.441 18.813 18.813 18.813v-.368C46.87 142.206 64.849 155.875 86 155.875c21.15 0 39.13-13.669 45.688-32.618v.368c10.37 0 18.812-8.441 18.812-18.813 0-9.457-7.025-17.285-16.125-18.597zM51.062 53.75a2.688 2.688 0 012.688-2.688h5.861l.554-1.956a26.774 26.774 0 012.379-5.762l.991-1.774-4.139-4.141a2.654 2.654 0 01-.787-1.898c0-.717.28-1.392.787-1.9l3.8-3.8c1.022-1.013 2.785-1.013 3.8 0l4.14 4.139 1.773-.992c1.785-1 3.725-1.8 5.762-2.378l1.954-.551v-5.862a2.688 2.688 0 012.688-2.687h5.375a2.688 2.688 0 012.687 2.687v5.862l1.957.554a26.774 26.774 0 015.762 2.378l1.773.992 4.142-4.14c1.01-1.015 2.776-1.015 3.797 0l3.8 3.801a2.68 2.68 0 01.788 1.9c0 .72-.28 1.392-.788 1.9l-4.138 4.139.991 1.774c1 1.784 1.8 3.725 2.379 5.762l.55 1.954h5.862a2.688 2.688 0 012.688 2.687v5.375a2.688 2.688 0 01-2.688 2.688h-5.861l-.554 1.956a26.774 26.774 0 01-2.378 5.762l-.992 1.774 4.139 4.141c.508.505.787 1.177.787 1.898a2.67 2.67 0 01-.787 1.9l-3.8 3.8c-1.022 1.016-2.785 1.018-3.8 0l-4.14-4.139-1.773.992c-1.785 1-3.725 1.8-5.762 2.378l-1.954.551v5.862a2.688 2.688 0 01-2.687 2.687h-5.375a2.688 2.688 0 01-2.688-2.687v-5.862l-1.956-.554a26.774 26.774 0 01-5.762-2.378l-1.774-.992-4.142 4.14c-1.01 1.015-2.776 1.015-3.797 0l-3.8-3.801a2.68 2.68 0 01-.788-1.9c0-.72.28-1.392.788-1.9l4.138-4.139-.991-1.774c-1-1.784-1.8-3.725-2.379-5.762l-.55-1.953H53.75a2.688 2.688 0 01-2.688-2.688zm-24.187 51.063c0-6.488 4.625-11.917 10.75-13.167v5.598c-3.123 1.113-5.375 4.07-5.375 7.569 0 3.593 2.376 6.605 5.628 7.645.196 1.92.537 3.795.954 5.641-6.706-.747-11.957-6.385-11.957-13.287zM129 107.5c0 23.71-19.29 43-43 43s-43-19.29-43-43V80.625c0-6.122 1.303-12.07 3.763-17.552 1.386 2.443 3.982 4.115 6.987 4.115h1.862a33.208 33.208 0 001.293 3.141l-1.311 1.309a8.016 8.016 0 00-2.363 5.703c0 2.153.842 4.179 2.363 5.7l3.8 3.8c3.047 3.045 8.363 3.045 11.4 0l1.312-1.311c1.018.483 2.066.916 3.141 1.292v1.866c0 4.445 3.618 8.062 8.063 8.062h5.375c4.445 0 8.062-3.617 8.062-8.062v-1.863a33.208 33.208 0 003.142-1.293l1.309 1.312c3.042 3.045 8.355 3.045 11.403 0l3.8-3.8a8.014 8.014 0 002.362-5.7 8.005 8.005 0 00-2.362-5.7l-1.311-1.312a31.846 31.846 0 001.292-3.142h1.868c3.005 0 5.598-1.671 6.988-4.114A42.818 42.818 0 01129 80.625zm4.168 10.6c.417-1.85.758-3.723.954-5.642 3.252-1.04 5.628-4.052 5.628-7.645 0-3.5-2.252-6.456-5.375-7.568v-5.599c6.125 1.25 10.75 6.676 10.75 13.167 0 6.901-5.251 12.54-11.957 13.287z" fill="url(#d)"/><path d="M86 72.563c8.893 0 16.125-7.233 16.125-16.126 0-8.892-7.232-16.124-16.125-16.124s-16.125 7.232-16.125 16.124c0 8.893 7.232 16.126 16.125 16.126zm0-26.876c5.929 0 10.75 4.822 10.75 10.75 0 5.93-4.821 10.75-10.75 10.75s-10.75-4.82-10.75-10.75c0-5.928 4.821-10.75 10.75-10.75z" fill="url(#e)"/></g></svg>