<svg xmlns="http://www.w3.org/2000/svg" width="64" height="64" viewBox="0 0 172 172"><defs><linearGradient x1="86.005" y1="18.813" x2="86.005" y2="154.921" gradientUnits="userSpaceOnUse" id="a"><stop offset="0" stop-color="#2af598"/><stop offset="1" stop-color="#009efd"/></linearGradient><linearGradient x1="86" y1="53.078" x2="86" y2="120.279" gradientUnits="userSpaceOnUse" id="b"><stop offset="0" stop-color="#95facc"/><stop offset="1" stop-color="#6ec8ff"/></linearGradient></defs><g fill="none" stroke-miterlimit="10" font-family="none" font-weight="none" font-size="none" text-anchor="none" style="mix-blend-mode:normal"><path d="M0 172V0h172v172z"/><path d="M123.894 153.188a8.64 8.64 0 01-4.037-1.011l-32.605-17.23a2.676 2.676 0 00-2.502 0l-32.61 17.23a8.573 8.573 0 01-9.078-.637 8.56 8.56 0 01-3.438-8.428l6.19-36.284a3.226 3.226 0 00-.92-2.835L18.722 78.349a8.549 8.549 0 01-2.158-8.805 8.55 8.55 0 016.934-5.842l36.117-5.276a3.235 3.235 0 002.432-1.774l16.214-33.02a8.575 8.575 0 017.74-4.82h.003a8.56 8.56 0 017.732 4.82l16.21 33.015a3.252 3.252 0 002.444 1.78l36.128 5.277a8.537 8.537 0 016.925 5.835 8.534 8.534 0 01-2.155 8.796L127.1 103.993a3.215 3.215 0 00-.92 2.832l6.193 36.287a8.558 8.558 0 01-3.435 8.428 8.591 8.591 0 01-5.044 1.648zM86 129.26c1.29 0 2.585.311 3.763.938l32.607 17.23c1.113.585 2.392.502 3.416-.243a3.168 3.168 0 001.292-3.168l-6.192-36.29a8.574 8.574 0 012.454-7.573L149.524 74.5a3.166 3.166 0 00.81-3.295 3.168 3.168 0 00-2.594-2.185l-36.125-5.278a8.61 8.61 0 01-6.493-4.727L88.91 25.999A3.182 3.182 0 0086 24.188c-1.266 0-2.354.68-2.913 1.816L66.873 59.026a8.6 8.6 0 01-6.48 4.722l-36.12 5.272c-1.238.18-2.211 1-2.601 2.19a3.174 3.174 0 00.812 3.304l26.17 25.641a8.576 8.576 0 012.454 7.576l-6.19 36.284c-.211 1.247.275 2.43 1.294 3.174a3.193 3.193 0 003.415.24l32.61-17.23A8.005 8.005 0 0186 129.26z" fill="url(#a)"/><path d="M88.443 112.566l15.751 8.027c2.234 1.137 4.851-.682 4.427-3.077l-3.212-18.16a2.89 2.89 0 01.863-2.606l13.754-13c1.796-1.695.796-4.633-1.693-4.982l-18.952-2.671a3.032 3.032 0 01-2.292-1.61l-8.35-16.407c-1.137-2.236-4.333-2.236-5.47 0l-8.352 16.407c-.441.868-1.301 1.47-2.293 1.61l-18.952 2.668c-2.489.35-3.486 3.287-1.693 4.983l13.776 13.018a2.842 2.842 0 01.847 2.559l-3.217 18.189c-.425 2.394 2.195 4.214 4.426 3.077l15.751-8.028a5.378 5.378 0 014.88.003z" fill="url(#b)"/></g></svg>