<svg xmlns="http://www.w3.org/2000/svg" width="48" height="48" viewBox="0 0 172 172"><defs><radialGradient cx="40.051" cy="30.075" r="144.451" gradientUnits="userSpaceOnUse" id="a"><stop offset="0" stop-color="#2af598"/><stop offset=".484" stop-color="#009efd"/><stop offset=".775" stop-color="#6ec8ff"/><stop offset="1" stop-color="#6ec8ff"/></radialGradient><radialGradient cx="86" cy="158.054" r="57.835" gradientUnits="userSpaceOnUse" id="b"><stop offset="0" stop-color="#95facc"/><stop offset="1" stop-color="#6ec8ff"/></radialGradient><radialGradient cx="86" cy="71.667" r="34.042" gradientUnits="userSpaceOnUse" id="c"><stop offset="0" stop-color="#95facc"/><stop offset="1" stop-color="#6ec8ff"/></radialGradient><linearGradient x1="66.553" y1="48.637" x2="106.55" y2="88.634" gradientUnits="userSpaceOnUse" id="d"><stop offset="0" stop-color="#95facc"/><stop offset="1" stop-color="#6ec8ff"/></linearGradient><linearGradient x1="60.942" y1="111.836" x2="110.682" y2="161.576" gradientUnits="userSpaceOnUse" id="e"><stop offset="0" stop-color="#95facc"/><stop offset="1" stop-color="#6ec8ff"/></linearGradient></defs><g fill="none" stroke-miterlimit="10" font-family="none" font-weight="none" font-size="none" text-anchor="none" style="mix-blend-mode:normal"><path d="M0 172V0h172v172z"/><path d="M157.667 86c0 39.578-32.09 71.667-71.667 71.667-39.578 0-71.667-32.09-71.667-71.667 0-39.578 32.09-71.667 71.667-71.667 39.578 0 71.667 32.09 71.667 71.667z" fill="url(#a)"/><path d="M86 157.667c20.765 0 39.41-8.887 52.5-22.998-8.866-20.207-29.022-34.336-52.5-34.336s-43.634 14.13-52.5 34.336c13.09 14.111 31.735 22.998 52.5 22.998z" fill="url(#b)"/><circle cx="24" cy="20" transform="scale(3.58333)" r="9.5" fill="url(#c)"/><circle cx="24" cy="19" transform="scale(3.58333)" r="8" fill="url(#d)"/><path d="M86 157.667c17.97 0 34.353-6.662 46.934-17.59C125.8 121.058 107.508 107.5 86 107.5c-21.507 0-39.8 13.56-46.934 32.576 12.58 10.93 28.964 17.59 46.934 17.59z" fill="url(#e)"/></g></svg>