<svg xmlns="http://www.w3.org/2000/svg" width="64" height="64" viewBox="0 0 172 172"><defs><linearGradient x1="86" y1="18.813" x2="86" y2="157.189" gradientUnits="userSpaceOnUse" id="a"><stop offset="0" stop-color="#2af598"/><stop offset="1" stop-color="#009efd"/></linearGradient><linearGradient x1="86" y1="18.813" x2="86" y2="157.189" gradientUnits="userSpaceOnUse" id="b"><stop offset="0" stop-color="#2af598"/><stop offset="1" stop-color="#009efd"/></linearGradient><linearGradient x1="71.415" y1="48.66" x2="71.415" y2="76.795" gradientUnits="userSpaceOnUse" id="c"><stop offset="0" stop-color="#95facc"/><stop offset="1" stop-color="#6ec8ff"/></linearGradient><linearGradient x1="71.415" y1="93.778" x2="71.415" y2="118.013" gradientUnits="userSpaceOnUse" id="d"><stop offset="0" stop-color="#95facc"/><stop offset="1" stop-color="#6ec8ff"/></linearGradient></defs><g fill="none" stroke-miterlimit="10" font-family="none" font-weight="none" font-size="none" text-anchor="none" style="mix-blend-mode:normal"><path d="M0 172V0h172v172z"/><path d="M86 16.125c-38.53 0-69.875 31.347-69.875 69.875S47.469 155.875 86 155.875c38.53 0 69.875-31.347 69.875-69.875S124.531 16.125 86 16.125zM86 150.5c-35.564 0-64.5-28.936-64.5-64.5S50.436 21.5 86 21.5s64.5 28.936 64.5 64.5-28.936 64.5-64.5 64.5z" fill="url(#a)"/><path d="M86 26.875c-32.602 0-59.125 26.523-59.125 59.125 0 32.602 26.523 59.125 59.125 59.125 32.602 0 59.125-26.523 59.125-59.125 0-32.602-26.523-59.125-59.125-59.125zm53.613 56.438H120.86c-.522-20.458-6.891-37.878-16.445-47.744 19.774 7.246 34.104 25.757 35.198 47.743zm-24.126 0h-26.8V32.489c14.553 2.403 26.067 24.067 26.8 50.824zM83.313 32.489v50.824h-26.8c.733-26.757 12.247-48.421 26.8-50.824zm-15.728 3.08c-9.554 9.866-15.923 27.286-16.445 47.743H32.387c1.094-21.986 15.424-40.497 35.198-47.743zM32.387 88.687H51.14c.522 20.458 6.891 37.878 16.445 47.744-19.774-7.246-34.104-25.757-35.198-47.744zm24.126 0h26.8v50.824c-14.553-2.403-26.067-24.067-26.8-50.824zm32.175 50.824V88.687h26.8c-.734 26.757-12.248 48.421-26.8 50.824zm15.727-3.08c9.554-9.869 15.926-27.286 16.445-47.744h18.753c-1.094 21.987-15.424 40.498-35.198 47.744z" fill="url(#b)"/><path d="M77.938 44.201C71.7 50.135 66.319 62.447 64.892 77.937h13.046z" fill="url(#c)"/><path d="M77.938 127.799V94.062H64.892c1.427 15.491 6.808 27.803 13.046 33.737z" fill="url(#d)"/></g></svg>